# xmcd CD database file generated by OrangeCD 6.4
#
# Track frame offsets:
#	150
#	27002
#	45143
#	62054
#	79152
#	95264
#	113941
#	132797
#	152526
#	173992
#	187522
#	212432
#
# Disc length: 3160 seconds
#
# Revision: 0
# Processed by: cddbd v1.5.2PL0 Copyright (c) Steve Scherf et al.
# Submitted via: OrangeCD 6.4
#
DISCID=840c560c
DTITLE=Jump 4 Joy - Made In Norway
DYEAR=1900
DGENRE=Blues
TTITLE0=Walk
TTITLE1=Diggin' My Potatoes
TTITLE2=The Fat Man
TTITLE3=Boogie Woogie Country Girl
TTITLE4=Jambalaya (On The Bayou)
TTITLE5=Your Cheatin' Heart
TTITLE6=Sweet Little Woman
TTITLE7=El Capitan
TTITLE8=Nosey Joe
TTITLE9=My Baby Is Boogying
TTITLE10=Ride It
TTITLE11=Barefootin'
EXTD=
EXTT0=
EXTT1=
EXTT2=
EXTT3=
EXTT4=
EXTT5=
EXTT6=
EXTT7=
EXTT8=
EXTT9=
EXTT10=
EXTT11=
PLAYORDER=
